<svg width="49" height="16" viewBox="0 0 49 16" fill="none" xmlns="http://www.w3.org/2000/svg">
<g clip-path="url(#clip0_7537_3257)">
<path fill-rule="evenodd" clip-rule="evenodd" d="M7.86952 11.9594L2.11475 11.9643L2.15667 11.7617L6.34944 11.641C7.15385 11.6112 7.93377 11.567 8.68864 11.3102C10.2384 10.7919 11.4724 9.73811 11.8353 8.43262C12.2251 7.03329 11.3292 5.67112 9.64115 5.55262C11.0703 5.13309 12.2893 4.22733 12.6125 3.06231C13.0344 1.54719 12.2722 0.782176 10.9837 0.503125C13.1259 0.468684 14.7989 1.18923 14.2289 3.23777C13.9055 4.40496 12.6568 5.29092 11.2356 5.67845C12.9037 5.80184 13.8168 7.39126 13.3752 8.77567C12.9135 10.217 11.7511 11.1128 10.2038 11.6285C9.44896 11.8854 8.66659 11.9296 7.86462 11.9594H7.86952Z" fill="#FF5F00"/>
<path fill-rule="evenodd" clip-rule="evenodd" d="M4.84909 11.2365L2.14947 11.3699C2.14947 11.3008 2.15192 11.3157 2.14457 11.249L8.98524 9.22509L9.00729 8.97831L2.02098 10.785C1.99893 10.7182 1.99648 10.738 1.96926 10.6738L9.28114 6.62387L9.2071 6.42157L1.7346 10.2838C1.6905 10.2198 1.7101 10.2469 1.65566 10.19L10.3499 2.07065L10.2437 1.85099L1.33743 9.90143C1.29551 9.8716 1.26856 9.84963 1.22391 9.82252L7.59827 0.649092H7.32931L0.806867 9.63241C0.769384 9.61972 0.731528 9.60814 0.69335 9.5977L4.48132 0.634448H4.23959L0.165239 9.52882H0L2.63783 0.00258308L7.56369 0.0174983C9.89337 -0.115925 11.7341 0.513498 11.1298 2.69004C10.8064 3.8575 9.58739 4.76326 8.16585 5.15052L8.1585 5.18279C9.84628 5.3013 10.7963 6.65858 10.4065 8.05791C10.0439 9.3634 8.74596 10.385 7.19592 10.9008C6.44078 11.1576 5.65868 11.2018 4.85644 11.2316L4.84909 11.2365ZM18.1354 11.9448C18.5008 11.9448 19.4214 11.8979 19.6436 10.8514C19.7644 10.2838 19.6879 9.88896 19.0931 9.80516V9.79269C19.5842 9.7013 19.8926 9.35824 19.9939 8.88204C20.1815 8.00096 19.6781 7.81085 19.0191 7.81085H17.4865L16.6083 11.9427H18.136V11.9451L18.1354 11.9448ZM18.2144 8.4476H18.7477C19.039 8.4476 19.1993 8.66997 19.1326 8.97343C19.0487 9.37316 18.7575 9.49899 18.5675 9.49899H17.9901L18.2147 8.44516V8.44787L18.2144 8.4476ZM17.8567 10.1357H18.3603C18.7945 10.1357 18.8857 10.3581 18.8067 10.7256C18.6834 11.3032 18.2713 11.3081 18.0886 11.3081H17.6076L17.8567 10.1357ZM22.4219 9.96299C22.5329 9.43743 22.4959 8.99567 21.4718 8.99567C21.1634 8.99567 20.8892 9.04746 20.6772 9.1855C20.4602 9.31648 20.3045 9.54102 20.2307 9.88896H21.0202C21.0697 9.65953 21.1362 9.44719 21.4176 9.44719C21.6988 9.44719 21.7062 9.62482 21.6545 9.87187L21.6076 10.094C20.8598 10.0815 20.1145 10.1235 19.9098 11.0784C19.8036 11.582 19.9196 11.9991 20.4798 11.9991C20.8277 11.9991 21.0942 11.8559 21.3286 11.5573H21.3411L21.2943 11.9397H22.0443C22.0642 11.762 22.0813 11.5795 22.1183 11.4019L22.4243 9.96055L22.4219 9.96299ZM21.5088 10.5479C21.4421 10.8639 21.3806 11.5031 20.9045 11.5031C20.6404 11.5031 20.66 11.2514 20.7044 11.0464C20.813 10.5306 21.1043 10.5653 21.5088 10.5479ZM23.851 9.05479H23.0436L22.4292 11.9448H23.2361L23.658 9.95323C23.7125 9.69641 23.8012 9.49655 24.0582 9.49655C24.3146 9.49655 24.3195 9.69641 24.2626 9.95323L23.8407 11.9448H24.6478L25.1414 9.62753C25.2277 9.22753 24.9364 8.99811 24.5539 8.99811C24.2504 8.99811 24.0135 9.0895 23.7988 9.34604H23.7865L23.8483 9.05479H23.851ZM25.8399 11.9448L26.1731 10.3703H26.1856L26.6002 11.9448H27.5108L26.9407 10.3408L28.0337 9.05479H27.1925L26.2052 10.274H26.1954L26.7186 7.81357H25.9115L25.033 11.9448H25.8399ZM29.5465 12.0015C30.588 12.0015 30.8594 11.3672 31.0518 10.4617C31.2195 9.67174 31.2492 8.99567 30.1856 8.99567C29.1221 8.99567 28.8629 9.67174 28.6952 10.4617C28.5025 11.3648 28.5052 12.0015 29.5465 12.0015ZM29.6551 11.4857C29.3564 11.4857 29.3243 11.2983 29.5094 10.4145C29.6379 9.81519 29.7316 9.51146 30.0746 9.51146C30.4176 9.51146 30.383 9.81519 30.2548 10.4145C30.0672 11.2959 29.9537 11.4857 29.6551 11.4857ZM33.1912 7.79621C33.0951 7.79133 33.004 7.78401 32.9076 7.78401C31.923 7.78401 31.8982 8.22577 31.728 9.05479H31.3627L31.2566 9.5535H31.617L31.1085 11.9448H31.9156L32.4238 9.5535H32.8014L32.9076 9.05479H32.53L32.6041 8.70685C32.6658 8.4156 32.7619 8.28977 33.0829 8.31201L33.1912 7.79621ZM35.0225 11.9448C35.3878 11.9448 36.3082 11.8979 36.5303 10.8514C36.6512 10.2838 36.5747 9.88896 35.9802 9.80516V9.79269C36.4712 9.7013 36.7797 9.35824 36.8809 8.88204C37.0682 8.00096 36.5649 7.81085 35.9061 7.81085H34.3735L33.495 11.9424H35.0225V11.9448ZM35.1014 8.4476H35.6347C35.9257 8.4476 36.0836 8.66997 36.0196 8.97343C35.9331 9.37316 35.6445 9.49899 35.4545 9.49899H34.8771L35.1014 8.44516V8.4476ZM34.7437 10.1357H35.2471C35.6815 10.1357 35.7727 10.3581 35.6938 10.7256C35.5705 11.3032 35.1583 11.3081 34.9757 11.3081H34.4944L34.7437 10.1357ZM39.3092 9.96299C39.4202 9.43743 39.3832 8.99567 38.3588 8.99567C38.0504 8.99567 37.7765 9.04746 37.5642 9.1855C37.3473 9.31648 37.1918 9.54102 37.1178 9.88896H37.9075C37.9568 9.65953 38.0235 9.44719 38.3047 9.44719C38.5859 9.44719 38.5935 9.62482 38.5415 9.87187L38.4947 10.094C37.7469 10.0815 37.0018 10.1235 36.7968 11.0784C36.6907 11.582 36.8066 11.9991 37.3669 11.9991C37.7148 11.9991 37.9813 11.8559 38.2159 11.5573H38.2282L38.1813 11.9397H38.9316C38.9512 11.762 38.9686 11.5795 39.0056 11.4019L39.3116 9.96055L39.3092 9.96299ZM38.3959 10.5479C38.3294 10.8639 38.2676 11.5031 37.7912 11.5031C37.5272 11.5031 37.5471 11.2514 37.5914 11.0464C37.7001 10.5306 37.9913 10.5653 38.3959 10.5479ZM39.9309 9.05479L39.3165 11.9448H40.1234L40.459 10.3703C40.5208 10.0839 40.6194 9.67174 41.3179 9.71865L41.4709 8.99811C41.145 8.99811 40.8488 9.09438 40.6292 9.4274H40.6169L40.6959 9.05479H39.9285H39.9309ZM42.0779 12.0015C43.1192 12.0015 43.3909 11.3672 43.5833 10.4617C43.751 9.67174 43.7807 8.99567 42.7171 8.99567C41.6535 8.99567 41.3944 9.67174 41.2264 10.4617C41.034 11.3648 41.0364 12.0015 42.0779 12.0015ZM42.1865 11.4857C41.8879 11.4857 41.8558 11.2983 42.0409 10.4145C42.1691 9.81519 42.2606 9.51146 42.606 9.51146C42.9515 9.51146 42.9145 9.81519 42.7863 10.4145C42.5987 11.2959 42.4852 11.4857 42.1865 11.4857ZM45.8066 11.9448L46.6853 7.81357H45.8782L45.555 9.32868H45.5425C45.429 9.08191 45.2466 8.99811 44.9553 8.99811C44.1433 8.99811 43.9756 9.89655 43.8498 10.4815C43.7238 11.0762 43.4968 12.0039 44.3333 12.0039C44.642 12.0039 44.8862 11.9077 45.0933 11.6264H45.1059L45.0367 11.9473H45.8041L45.8066 11.9448ZM44.7678 11.5028C44.4765 11.5028 44.4887 11.1996 44.6444 10.4739C44.7678 9.89628 44.8467 9.49655 45.1946 9.49655C45.5425 9.49655 45.4366 9.89628 45.313 10.4739C45.1576 11.202 45.0416 11.5028 44.7678 11.5028ZM48.832 9.96299C48.9431 9.43743 48.9061 8.99567 47.882 8.99567C47.5736 8.99567 47.2997 9.04746 47.0874 9.1855C46.8701 9.31648 46.7147 9.54102 46.6406 9.88896H47.4304C47.4796 9.65953 47.5463 9.44719 47.8275 9.44719C48.109 9.44719 48.1164 9.62482 48.0646 9.87187L48.0176 10.094C47.27 10.0815 46.5247 10.1235 46.32 11.0784C46.2138 11.582 46.3298 11.9991 46.89 11.9991C47.2379 11.9991 47.5044 11.8559 47.7388 11.5573H47.751L47.7042 11.9397H48.4545C48.4743 11.762 48.4915 11.5795 48.5285 11.4019L48.8345 9.96055L48.832 9.96299ZM47.9166 10.5479C47.8499 10.8639 47.7881 11.5031 47.3119 11.5031C47.0479 11.5031 47.0675 11.2514 47.1121 11.0464C47.2205 10.5306 47.5118 10.5653 47.9166 10.5479ZM40.5306 5.67635H41.2291L41.0713 6.25641H40.3727L40.5306 5.67635ZM30.9704 5.10387H31.669L31.5111 5.68367H30.8126L30.9704 5.10387ZM19.8014 0.927871H20.5L20.3421 1.50767H19.6436L19.8014 0.927871ZM28.5621 1.79648L28.4535 2.14685H28.91L28.6114 3.30672H28.0239L27.9254 3.66468H28.5202L28.0882 5.34279H28.8213L29.6428 2.14929H30.2229L29.4011 5.34279H30.1339L30.9557 2.14929H31.5677L31.0521 4.14089C30.9704 4.45682 31.247 4.6396 31.6145 4.6396C31.9058 4.6396 32.1304 4.56801 32.3476 4.36299L32.1032 5.34035H32.903C32.925 5.18984 33.1373 4.28896 33.1768 4.14089L33.3693 3.40326C33.4433 3.24272 33.5666 3.09465 33.7444 3.09465C33.991 3.09465 33.9935 3.25248 33.9418 3.4575L33.537 5.03201H34.3095L34.7807 3.19824C34.8621 2.88231 34.5858 2.6998 34.2181 2.6998C33.9295 2.6998 33.6826 2.79092 33.4779 2.99106L33.6976 2.14929H35.0277L35.1363 1.79892H28.5694L28.5621 1.79648ZM32.9152 2.14685L32.4734 3.80543C32.4217 4.01018 32.3277 4.24204 32.0811 4.24204C31.8342 4.24204 31.8293 4.09424 31.8813 3.8895L32.3354 2.14685H32.9152ZM26.3089 5.33818H25.2132L25.3047 4.97533H26.2596C26.5014 4.97533 26.8569 4.83974 26.9802 4.36082C27.0592 4.05736 26.9285 3.70699 26.4916 3.70699H25.7759L25.8723 3.31214H26.7039C26.9974 3.31214 27.2244 3.06021 27.3085 2.72963C27.3725 2.47797 27.3578 2.14224 26.9209 2.14224H26.0302L26.1214 1.7794H27.195C27.7378 1.7794 28.3277 2.01397 28.172 2.66536C28.0536 3.1516 27.8045 3.39594 27.232 3.48706C27.8241 3.56868 27.9425 3.96109 27.8217 4.43241C27.5995 5.3013 26.6767 5.33818 26.3089 5.33818ZM18.2471 1.79675H17.0155L16.9069 2.14713H18.6962L18.5234 2.82835C18.4147 2.63336 18.1063 2.55933 17.8276 2.55933C17.0501 2.55933 16.8329 3.18848 16.7144 3.65004C16.5936 4.12163 16.4332 4.93601 17.2328 4.93601C17.5289 4.93601 17.8967 4.86685 18.1066 4.64475L17.9139 5.34062H18.6467L19.4661 2.14957H21.4451L21.2725 2.83079C21.1639 2.6358 20.9886 2.56909 20.7099 2.56909C19.9327 2.56909 19.7375 3.21587 19.6191 3.67743C19.4982 4.14875 19.3155 4.94577 20.115 4.94577C20.4112 4.94577 20.6432 4.8693 20.8528 4.64719L20.663 5.34306H21.391L21.8254 3.59336C21.9561 3.1516 22.0944 2.97885 22.3263 2.97885C22.6051 2.97885 22.5928 3.21831 22.4447 3.79323C22.3263 4.24991 22.2373 4.64963 21.9019 4.64963C21.8771 4.64963 21.8502 4.63499 21.8303 4.62984L21.7759 4.8373C21.8548 4.90889 21.9931 4.93845 22.1461 4.93845C22.9236 4.93845 23.1234 4.27214 23.2418 3.81058C23.3627 3.33926 23.538 2.58401 22.7382 2.58401C22.4423 2.58401 22.1978 2.67052 21.998 2.89262L22.1804 2.15228H23.6662L23.7751 1.80163H19.5001L19.1228 0.0741763L18.4763 0.360549L19.0243 1.80163H18.8168L18.1333 0.617092L17.5978 1.0095L18.2394 1.80163L18.2471 1.79675ZM17.6844 3.15892C17.7731 3.02821 17.8967 2.95418 18.0941 2.95418C18.5111 2.95906 18.4199 3.27743 18.3012 3.73411L18.2569 3.90197L17.6844 3.15892ZM18.1213 4.26211C18.02 4.45736 17.8918 4.54116 17.6844 4.54116C17.3316 4.54116 17.3264 4.30414 17.472 3.73167C17.4919 3.65031 17.5115 3.57357 17.5338 3.50441L18.1186 4.26211H18.1213ZM20.6655 5.33818L20.8555 4.64231C20.8555 4.64231 20.8604 4.64231 20.6655 5.33818ZM20.5296 4.54848C20.2509 4.54848 20.2631 4.30902 20.4112 3.73411C20.5296 3.27743 20.6037 2.95906 20.9393 2.95906C21.275 2.95906 21.1688 3.27499 21.0528 3.73411C20.9048 4.30902 20.7937 4.54848 20.5321 4.54848H20.5296ZM42.0562 2.80855C41.9919 2.6358 41.7872 2.58645 41.328 2.58645C40.578 2.58645 40.4519 2.67052 40.2742 3.32191C40.183 3.67472 40.104 4.0994 40.6049 4.0994C40.7974 4.0994 41.1973 4.10672 41.1973 4.10672C41.6489 4.10672 41.6266 4.26211 41.5329 4.55824C41.4194 4.97316 41.3206 5.04204 41.022 5.04204C40.5309 5.04204 40.6989 4.75811 40.7778 4.47201H39.9312C39.7611 5.01492 39.7907 5.35065 40.5382 5.35065H41.3947C41.834 5.35065 42.1868 5.30862 42.3744 4.58807C42.5274 3.94889 42.4484 3.7859 42.0191 3.7859H41.4341C41.0911 3.79323 40.9923 3.72163 41.0764 3.37641C41.1924 2.97153 41.2762 2.93194 41.5599 2.93194C41.8735 2.93194 41.987 3.02333 41.9252 3.27011H42.6608L42.9542 2.14468H43.5417L42.7198 5.33818H43.4529L44.2745 2.14468H46.3401L46.1994 2.6358C46.1994 2.6358 45.8861 2.61845 45.6073 2.61845C44.8298 2.61845 44.5486 3.1836 44.3856 3.82794C44.2252 4.45465 44.0673 5.38021 45.0149 5.38021C45.1777 5.38021 45.3925 5.36529 45.585 5.3135C45.6171 5.53316 45.7257 5.72082 45.9056 5.93533L46.6954 5.5036C46.6954 5.5036 46.3006 5.47892 46.1379 5.17031C46.4561 5.08163 46.6189 4.90889 46.7103 4.58807C46.7743 4.36082 46.7743 4.10184 46.3031 4.10184C45.7872 4.10184 45.5357 4.61004 45.585 5.04692C45.5207 5.06916 45.469 5.08163 45.4393 5.08163C44.9779 5.08163 45.1061 4.65452 45.2692 3.94645C45.4048 3.35662 45.4987 2.95662 45.8316 2.95662H46.856L47.11 2.14468H47.7467L46.9248 5.33818H47.6579L48.4798 2.14468H48.8917L49 1.79431H44.0769L43.6993 0.0668543L43.0528 0.352956L43.6005 1.79431H43.3933L42.7098 0.60977L42.1743 1.00218L42.8159 1.79404H37.5991L37.4904 2.14468H39.2672L39.0944 2.8259C38.9858 2.63092 38.6773 2.55689 38.3986 2.55689C37.6211 2.55689 37.3769 3.23323 37.2585 3.69452C37.1376 4.16584 37.0067 4.93357 37.8038 4.93357C38.1 4.93357 38.4677 4.86441 38.6773 4.64231L38.4849 5.33818H39.218L40.0371 2.14713H42.2064L42.0507 2.80882H42.0559L42.0562 2.80855ZM38.241 3.18631C38.3297 3.03824 38.4579 2.95174 38.6703 2.95418C39.0873 2.95906 38.9961 3.27743 38.8777 3.73411L38.8208 3.93885L38.241 3.18631ZM38.6161 4.29194C38.5173 4.46468 38.3915 4.54116 38.1966 4.54116C37.8435 4.54116 37.8362 4.30414 37.9843 3.73167L38.036 3.54157L38.6161 4.29194ZM31.3309 0.686244C31.1507 1.37723 30.8324 1.41682 30.4374 1.41682H29.6651C29.0186 1.41682 28.9666 1.14021 29.0976 0.686244H29.8625C29.7909 0.920549 29.6948 1.13777 30.1018 1.13777C30.3683 1.13777 30.4598 1.07377 30.561 0.701159L31.3333 0.688685L31.3309 0.686244ZM44.4525 15.8198L44.8108 14.1181H45.1445L44.958 15.0033L45.3925 14.5875H45.8267L45.331 15.0323L45.5961 15.8198H45.2624L45.0906 15.2476L44.8647 15.4483L44.7863 15.8198H44.4525ZM43.2624 14.5875H43.5814L43.5493 14.7489C43.628 14.6781 43.7039 14.629 43.7728 14.5997C43.8414 14.5704 43.9152 14.5558 43.9911 14.5558C44.0943 14.5558 44.1751 14.5851 44.2342 14.6439C44.293 14.7025 44.3224 14.7806 44.3224 14.8785C44.3224 14.9224 44.3077 15.0033 44.2783 15.1229L44.1286 15.8198H43.7948L43.947 15.1204C43.9691 15.0155 43.9813 14.9542 43.9813 14.9322C43.9813 14.8883 43.9691 14.8541 43.9421 14.8297C43.913 14.8043 43.8752 14.7911 43.8365 14.7928C43.7875 14.7928 43.7311 14.8126 43.6721 14.8541C43.6111 14.8954 43.562 14.9519 43.5297 15.0179C43.5027 15.0667 43.4758 15.1643 43.4415 15.3135L43.3359 15.8198H43.0021L43.2624 14.5875ZM42.4623 15.2427C42.4355 15.2489 42.4085 15.2538 42.3812 15.2574C42.2143 15.2769 42.1041 15.3062 42.0523 15.3455C42.0348 15.3589 42.0207 15.3763 42.0113 15.3963C42.0019 15.4163 41.9975 15.4382 41.9984 15.4602C41.9984 15.4995 42.0131 15.5337 42.0401 15.5605C42.067 15.5877 42.1041 15.602 42.1506 15.602C42.2021 15.602 42.2489 15.5898 42.293 15.5654C42.3347 15.5436 42.3695 15.5107 42.3934 15.4702C42.4158 15.4309 42.4354 15.3699 42.4525 15.2891L42.4623 15.2452V15.2427ZM42.1457 14.9298L41.8193 14.9029C41.8561 14.7928 41.9225 14.7074 42.0156 14.6461C42.109 14.5851 42.2315 14.5534 42.3836 14.5534C42.5358 14.5534 42.661 14.5851 42.7373 14.6488C42.8132 14.7123 42.8524 14.7904 42.8524 14.8834C42.8524 14.92 42.85 14.9593 42.8426 15.0008C42.8353 15.0423 42.8132 15.1524 42.774 15.3309C42.7422 15.4773 42.7247 15.5825 42.7247 15.6414C42.7247 15.6951 42.7348 15.7512 42.7544 15.8174H42.428C42.4159 15.7717 42.4077 15.725 42.4035 15.678C42.356 15.7305 42.2983 15.773 42.2339 15.8027C42.1741 15.8312 42.1088 15.8462 42.0425 15.8467C41.9396 15.8467 41.8561 15.8125 41.7875 15.7463C41.7542 15.712 41.7281 15.6714 41.7108 15.627C41.6935 15.5825 41.6853 15.535 41.6867 15.4873C41.6867 15.3699 41.7235 15.2744 41.7973 15.2037C41.8708 15.1329 42.0009 15.0911 42.1898 15.0765C42.3493 15.0643 42.455 15.0472 42.5089 15.0277C42.5236 14.9813 42.5309 14.9444 42.5309 14.9151C42.5311 14.8977 42.5272 14.8805 42.5196 14.8648C42.5119 14.8491 42.5007 14.8354 42.4868 14.8248C42.4574 14.8004 42.4158 14.7879 42.3591 14.7879C42.3003 14.7879 42.2513 14.8001 42.2168 14.8248C42.1818 14.8497 42.1566 14.8859 42.1457 14.9273V14.93V14.9298ZM40.3591 15.5459H40.6978C40.8401 15.5459 40.936 15.5361 40.985 15.5188C41.0328 15.5017 41.074 15.4701 41.1028 15.4285C41.1311 15.3903 41.1465 15.3442 41.1469 15.2967C41.1473 15.2702 41.1418 15.244 41.1308 15.2199C41.1198 15.1958 41.1035 15.1744 41.0832 15.1573C41.0413 15.1204 40.9703 15.1033 40.872 15.1033H40.4525L40.3591 15.5483V15.5459ZM40.5137 14.8053H40.7838C40.9038 14.8053 40.9923 14.7977 41.0438 14.7809C41.0923 14.7678 41.1348 14.7384 41.1641 14.6976C41.1898 14.6611 41.2035 14.6175 41.2033 14.5729C41.2047 14.5337 41.1916 14.4954 41.1665 14.4652C41.1379 14.4362 41.1011 14.4166 41.0609 14.4091C41.034 14.4042 40.9727 14.4018 40.8744 14.4018H40.5998L40.5162 14.8029L40.5137 14.8053ZM39.9494 15.8195L40.3077 14.1181H40.8916C41.0193 14.1181 41.1077 14.123 41.1592 14.1303C41.2425 14.1428 41.3138 14.1648 41.3726 14.2014C41.4317 14.2355 41.4758 14.2819 41.5052 14.3408C41.5346 14.3993 41.5493 14.4628 41.5493 14.5338C41.5493 14.629 41.5223 14.7098 41.4709 14.7782C41.417 14.8468 41.3359 14.9005 41.2253 14.9347C41.3114 14.9591 41.38 15.0008 41.4292 15.0621C41.4782 15.1229 41.5027 15.1939 41.5027 15.2696C41.5027 15.3723 41.4733 15.4675 41.4145 15.5605C41.3574 15.6503 41.2732 15.7196 41.1739 15.7585C41.0707 15.7978 40.9311 15.8198 40.7517 15.8198H39.947L39.9494 15.8195ZM38.6218 15.8195L38.98 14.1181H39.3138L38.9555 15.8198L38.6218 15.8195ZM38.0891 15.2427C38.0624 15.2489 38.0354 15.2538 38.0082 15.2574C37.8413 15.2769 37.7308 15.3062 37.6794 15.3455C37.6617 15.3589 37.6476 15.3763 37.6382 15.3962C37.6288 15.4162 37.6243 15.4382 37.6252 15.4602C37.6252 15.4995 37.6402 15.5337 37.6671 15.5605C37.6817 15.5745 37.699 15.5854 37.718 15.5926C37.7369 15.5997 37.7571 15.6029 37.7774 15.602C37.8291 15.602 37.8756 15.5898 37.9197 15.5654C37.9616 15.5437 37.9965 15.5107 38.0205 15.4702C38.0425 15.4309 38.0621 15.3699 38.0793 15.2891L38.0891 15.2452V15.2427ZM37.77 14.9298L37.4436 14.9029C37.4806 14.7928 37.5468 14.7074 37.6402 14.6461C37.7333 14.5851 37.856 14.5534 38.0082 14.5534C38.1604 14.5534 38.2856 14.5851 38.3616 14.6488C38.4375 14.7123 38.477 14.7904 38.477 14.8834C38.477 14.92 38.4745 14.9593 38.4672 15.0008C38.4598 15.0423 38.4375 15.1524 38.3983 15.3309C38.3665 15.4773 38.3493 15.5825 38.3493 15.6414C38.3493 15.6951 38.3591 15.7512 38.3787 15.8174H38.0523C38.0402 15.7717 38.032 15.725 38.0278 15.678C37.9788 15.7317 37.9222 15.7732 37.8585 15.8027C37.7987 15.8311 37.7334 15.8461 37.6671 15.8467C37.5639 15.8467 37.4806 15.8125 37.4118 15.7463C37.3786 15.712 37.3526 15.6714 37.3353 15.6269C37.3181 15.5824 37.3099 15.535 37.3113 15.4873C37.3113 15.3699 37.3481 15.2744 37.4216 15.2037C37.4953 15.1329 37.6252 15.0911 37.8144 15.0765C37.9739 15.0643 38.0793 15.0472 38.1334 15.0277C38.1481 14.9813 38.1555 14.9444 38.1555 14.9151C38.1557 14.8977 38.1518 14.8804 38.1441 14.8647C38.1364 14.849 38.1251 14.8354 38.1111 14.8248C38.0817 14.8004 38.0401 14.7879 37.9837 14.7879C37.9246 14.7879 37.8756 14.8001 37.8413 14.8248C37.8063 14.8497 37.7811 14.8859 37.77 14.9273V14.93V14.9298ZM36.1062 14.5875H36.4252L36.3934 14.7489C36.4718 14.6781 36.548 14.629 36.6166 14.5997C36.6855 14.5704 36.759 14.5558 36.8352 14.5558C36.9381 14.5558 37.0192 14.5851 37.078 14.6439C37.1371 14.7025 37.1665 14.7806 37.1665 14.8785C37.1665 14.9224 37.1518 15.0033 37.1246 15.1229L36.9751 15.8198H36.6414L36.7933 15.1204C36.8156 15.0155 36.8279 14.9542 36.8279 14.9322C36.8279 14.8883 36.8156 14.8541 36.7884 14.8297C36.7594 14.8043 36.7216 14.791 36.683 14.7928C36.6338 14.7928 36.5774 14.8126 36.5186 14.8541C36.4575 14.8953 36.4084 14.9518 36.3762 15.0179C36.3493 15.0667 36.3223 15.1643 36.2878 15.3135L36.1824 15.8198H35.8487L36.1086 14.5875H36.1062ZM35.3848 15.0692C35.3848 14.9886 35.3628 14.9249 35.3159 14.8785C35.2694 14.8297 35.2106 14.8077 35.1368 14.8077C35.0633 14.8077 35.0021 14.8294 34.9454 14.8761C34.8891 14.92 34.8474 14.9862 34.8153 15.0716C34.7857 15.1473 34.7699 15.2277 34.7688 15.3089C34.7688 15.3968 34.7933 15.4678 34.8401 15.5215C34.8891 15.573 34.9479 15.5996 35.0217 15.5996C35.1123 15.5996 35.1885 15.5605 35.2522 15.4824C35.3407 15.3699 35.3848 15.2357 35.3848 15.074V15.0692ZM34.435 15.3089C34.435 15.0789 34.499 14.898 34.6288 14.7611C34.759 14.6241 34.9283 14.5558 35.1368 14.5558C35.3184 14.5558 35.4608 14.6073 35.5639 14.7074C35.6671 14.8077 35.7185 14.942 35.7185 15.1131C35.7185 15.3138 35.6548 15.4873 35.5272 15.6316C35.3995 15.778 35.2277 15.8513 35.0119 15.8513C34.8964 15.8513 34.7908 15.8269 34.7026 15.7808C34.6159 15.738 34.5454 15.6686 34.5014 15.5828C34.4573 15.4982 34.4345 15.4042 34.435 15.3089ZM33.981 14.5875H34.3147L34.0547 15.8198H33.721L33.981 14.5875ZM34.0792 14.1184H34.413L34.3493 14.4189H34.0155L34.0792 14.1181V14.1184ZM33.014 14.8343L33.0633 14.5875H33.2277L33.2669 14.3944L33.6448 14.1648L33.559 14.5878H33.7602L33.7112 14.8346H33.5073L33.3995 15.3553C33.3799 15.448 33.3701 15.5017 33.3701 15.5142C33.3701 15.541 33.3774 15.5605 33.3946 15.5728C33.4117 15.5874 33.4387 15.5947 33.4828 15.5947C33.4975 15.5947 33.5345 15.5923 33.5933 15.5874L33.5419 15.8342C33.4838 15.8462 33.4245 15.852 33.3652 15.8515C33.2473 15.8515 33.1613 15.8296 33.1098 15.7832C33.0559 15.7365 33.029 15.6731 33.029 15.5923C33.029 15.5532 33.0437 15.4675 33.0731 15.3309L33.1784 14.8346L33.014 14.8343ZM32.3909 15.2427C32.3641 15.2489 32.337 15.2538 32.3098 15.2574C32.1429 15.2769 32.0327 15.3062 31.9809 15.3455C31.9634 15.3589 31.9493 15.3763 31.9399 15.3963C31.9305 15.4163 31.9261 15.4382 31.927 15.4602C31.927 15.4995 31.9417 15.5337 31.9687 15.5605C31.9956 15.5877 32.0327 15.602 32.0792 15.602C32.1307 15.602 32.1772 15.5898 32.2216 15.5654C32.2633 15.5436 32.2981 15.5107 32.322 15.4702C32.3441 15.4309 32.364 15.3699 32.3811 15.2891L32.3909 15.2452V15.2427ZM32.0719 14.9298L31.7455 14.9029C31.7792 14.7973 31.8485 14.7066 31.9417 14.6461C32.0351 14.5851 32.1576 14.5534 32.3098 14.5534C32.462 14.5534 32.5872 14.5851 32.6631 14.6488C32.7393 14.7123 32.7786 14.7904 32.7786 14.8834C32.7786 14.92 32.7761 14.9593 32.7687 15.0008C32.7614 15.0423 32.7394 15.1524 32.7002 15.3309C32.668 15.4773 32.6509 15.5825 32.6509 15.6414C32.6509 15.6951 32.6607 15.7512 32.6778 15.8174H32.3514C32.3393 15.7717 32.3311 15.725 32.3269 15.678C32.2779 15.7317 32.2216 15.7732 32.1576 15.8027C32.0978 15.8312 32.0325 15.8462 31.9662 15.8467C31.8633 15.8467 31.7798 15.8125 31.7112 15.7463C31.6779 15.712 31.6518 15.6714 31.6345 15.627C31.6172 15.5825 31.609 15.535 31.6104 15.4873C31.6104 15.3699 31.6472 15.2744 31.721 15.2037C31.7945 15.1329 31.9246 15.0911 32.1135 15.0765C32.273 15.0643 32.3787 15.0472 32.4326 15.0277C32.4473 14.9813 32.4546 14.9444 32.4546 14.9151C32.4548 14.8977 32.4509 14.8805 32.4433 14.8648C32.4356 14.8491 32.4244 14.8354 32.4105 14.8248C32.3811 14.8004 32.3392 14.7879 32.2828 14.7879C32.224 14.7879 32.1748 14.8001 32.1405 14.8248C32.1055 14.8497 32.0803 14.8859 32.0694 14.9273L32.0719 14.93V14.9298ZM30.408 14.5875H30.7271L30.695 14.7489C30.7736 14.6781 30.8496 14.629 30.9185 14.5997C30.9871 14.5704 31.0608 14.5558 31.1368 14.5558C31.2399 14.5558 31.3208 14.5851 31.3799 14.6439C31.4387 14.7025 31.4681 14.7806 31.4681 14.8785C31.4681 14.9224 31.4534 15.0033 31.4264 15.1229L31.2767 15.8198H30.943L31.0951 15.1204C31.1172 15.0155 31.1294 14.9542 31.1294 14.9322C31.1294 14.8883 31.1172 14.8541 31.0902 14.8297C31.0611 14.8043 31.0233 14.7911 30.9846 14.7928C30.9356 14.7928 30.8793 14.8126 30.8202 14.8541C30.7592 14.8954 30.7102 14.9519 30.6778 15.0179C30.6509 15.0667 30.6239 15.1643 30.5896 15.3135L30.484 15.8198H30.1502L30.4105 14.5875H30.408ZM29.4558 14.5875H29.77L29.7234 14.8199C29.8386 14.6437 29.9638 14.5558 30.0988 14.5558C30.1453 14.5558 30.1968 14.568 30.2534 14.5924L30.1233 14.8636C30.0916 14.8528 30.0585 14.8472 30.025 14.8468C29.9687 14.8468 29.9099 14.8685 29.8484 14.9127C29.7896 14.9566 29.743 15.013 29.7084 15.0862C29.6741 15.1595 29.6423 15.2744 29.6104 15.4309L29.5293 15.8174H29.1956L29.4558 14.5851V14.5875ZM28.8128 15.1033V15.0692C28.8128 14.9764 28.7932 14.9078 28.7516 14.8614C28.7096 14.8151 28.6557 14.7928 28.5847 14.7928C28.5134 14.7928 28.4546 14.8199 28.3979 14.8712C28.344 14.9227 28.3073 15.0008 28.2877 15.1033H28.8128ZM29.0927 15.3064H28.2534V15.3357C28.2534 15.4187 28.2779 15.4849 28.3245 15.5361C28.371 15.5877 28.4301 15.6121 28.4987 15.6121C28.6116 15.6121 28.6974 15.5557 28.7614 15.4407L29.0605 15.4895C29.0017 15.6094 28.9233 15.6999 28.8275 15.7585C28.7285 15.8185 28.6146 15.8499 28.4987 15.8491C28.3318 15.8491 28.1968 15.7954 28.0914 15.6926C27.9858 15.5874 27.9344 15.448 27.9344 15.2744C27.9344 15.1009 27.9809 14.9544 28.0765 14.8224C28.2041 14.6439 28.3881 14.5558 28.6263 14.5558C28.7785 14.5558 28.8986 14.6022 28.987 14.6952C29.0755 14.7879 29.1221 14.9203 29.1221 15.0887C29.1221 15.1695 29.1147 15.2427 29.0976 15.3064H29.0927ZM27.1808 14.8346L27.2298 14.5878H27.3943L27.4337 14.3944L27.8116 14.1648L27.7256 14.5878H27.927L27.8777 14.8346H27.6741L27.566 15.3553C27.5464 15.448 27.5366 15.5017 27.5366 15.5142C27.5366 15.541 27.544 15.5605 27.5611 15.5728C27.5783 15.5874 27.6055 15.5947 27.6496 15.5947C27.6643 15.5947 27.7011 15.5923 27.7601 15.5874L27.7084 15.8342C27.6503 15.8463 27.5911 15.8521 27.5317 15.8515C27.4139 15.8515 27.3281 15.8296 27.2767 15.7832C27.2225 15.7365 27.1955 15.6731 27.1955 15.5923C27.1955 15.5532 27.2102 15.4675 27.2396 15.3309L27.3453 14.8346H27.1808ZM25.9022 14.5878H26.2213L26.1894 14.7489C26.2678 14.6781 26.344 14.629 26.4126 14.5997C26.4815 14.5704 26.555 14.5558 26.6312 14.5558C26.7341 14.5558 26.8153 14.5851 26.8741 14.6439C26.9331 14.7025 26.9625 14.7806 26.9625 14.8785C26.9625 14.9224 26.9478 15.0033 26.9206 15.1229L26.7709 15.8198H26.4374L26.5893 15.1204C26.6116 15.0155 26.6239 14.9542 26.6239 14.9322C26.6239 14.8883 26.6116 14.8541 26.5844 14.8297C26.5554 14.8043 26.5176 14.7911 26.4791 14.7928C26.4301 14.7928 26.3734 14.8126 26.3146 14.8541C26.2536 14.8953 26.2045 14.9518 26.1723 15.0179C26.145 15.0667 26.1184 15.1643 26.0838 15.3135L25.9784 15.8198H25.6447L25.9047 14.5875L25.9022 14.5878ZM24.9628 15.8195L25.321 14.1178H25.6719L25.3137 15.8195H24.9628ZM22.9429 15.4773L23.2668 15.4258C23.2962 15.4944 23.3308 15.5432 23.3749 15.57C23.4166 15.5993 23.4756 15.6115 23.5491 15.6115C23.6226 15.6115 23.6866 15.5944 23.7307 15.5603C23.7626 15.5359 23.7773 15.5088 23.7773 15.4749C23.7775 15.4635 23.7754 15.4523 23.7712 15.4417C23.767 15.4312 23.7607 15.4216 23.7527 15.4136C23.7356 15.3965 23.689 15.3745 23.6153 15.3501C23.4141 15.2839 23.2889 15.2302 23.2423 15.1912C23.206 15.1634 23.1768 15.1273 23.1572 15.0861C23.1375 15.0448 23.128 14.9995 23.1294 14.9539C23.1294 14.8563 23.1664 14.773 23.2399 14.7022C23.3406 14.6046 23.4928 14.5555 23.6915 14.5555C23.851 14.5555 23.9713 14.5848 24.0522 14.6437C24.133 14.7022 24.1848 14.7803 24.2068 14.8807L23.9 14.9344C23.8855 14.8928 23.858 14.8569 23.8216 14.8319C23.7674 14.8001 23.7054 14.784 23.6425 14.7852C23.5712 14.7852 23.5222 14.7974 23.4928 14.8197C23.4607 14.8441 23.446 14.8709 23.446 14.9002C23.446 14.9295 23.4609 14.9563 23.4928 14.9761C23.5124 14.9883 23.5736 15.0103 23.6793 15.042C23.8412 15.0884 23.949 15.1351 24.0056 15.1814C24.084 15.2449 24.1208 15.3233 24.1208 15.4136C24.1208 15.531 24.0718 15.6338 23.9738 15.7192C23.8755 15.8049 23.7356 15.8488 23.5565 15.8488C23.3774 15.8488 23.2399 15.8171 23.1443 15.7512C23.0464 15.6863 22.9757 15.5879 22.9456 15.4746L22.9429 15.4773ZM22.7148 14.1178H23.051L22.9971 14.382C22.9649 14.536 22.9135 14.6437 22.8424 14.7071C22.7711 14.7706 22.6805 14.8048 22.5699 14.8048L22.6042 14.651C22.6525 14.6422 22.697 14.6192 22.7319 14.5848C22.7613 14.5531 22.7836 14.5043 22.8005 14.4384H22.6486L22.7172 14.1178H22.7148ZM21.8287 15.2424C21.802 15.2486 21.775 15.2535 21.7478 15.2571C21.581 15.2766 21.4704 15.3059 21.419 15.3452C21.4014 15.3586 21.3873 15.376 21.3779 15.396C21.3685 15.416 21.3641 15.4379 21.3651 15.4599C21.3651 15.4993 21.3798 15.5334 21.4067 15.5603C21.434 15.5874 21.4704 15.6018 21.5173 15.6018C21.5687 15.6018 21.6153 15.5896 21.6594 15.5652C21.7012 15.5434 21.7361 15.5104 21.7601 15.47C21.7821 15.4307 21.8017 15.3696 21.8189 15.2888L21.8287 15.2449V15.2424ZM21.5124 14.9295L21.1857 14.9027C21.2227 14.7925 21.2891 14.7071 21.3822 14.6458C21.4753 14.5848 21.5981 14.5531 21.7503 14.5531C21.9025 14.5531 22.0277 14.5848 22.1036 14.6485C22.1798 14.712 22.2191 14.7901 22.2191 14.8831C22.2191 14.9197 22.2163 14.9591 22.2092 15.0005C22.1881 15.1109 22.1652 15.221 22.1404 15.3306C22.1085 15.477 22.0914 15.5822 22.0914 15.6411C22.0914 15.6948 22.1012 15.7509 22.1208 15.8171H21.7941C21.782 15.7714 21.7738 15.7248 21.7696 15.6777C21.7206 15.7314 21.664 15.7729 21.6003 15.8024C21.5405 15.8308 21.4752 15.8458 21.4089 15.8464C21.3057 15.8464 21.2224 15.8122 21.1563 15.746C21.123 15.7117 21.097 15.6712 21.0797 15.6267C21.0624 15.5822 21.0542 15.5347 21.0556 15.4871C21.0556 15.3696 21.0923 15.2742 21.1661 15.2034C21.2396 15.1326 21.3697 15.0909 21.5586 15.0762C21.7182 15.064 21.8238 15.0469 21.8777 15.0274C21.8924 14.981 21.8997 14.9441 21.8997 14.9149C21.8999 14.8974 21.896 14.8802 21.8884 14.8645C21.8807 14.8488 21.8695 14.8352 21.8556 14.8245C21.826 14.8001 21.7843 14.7877 21.7277 14.7877C21.6716 14.7877 21.6199 14.7999 21.5856 14.8245C21.5506 14.8494 21.5255 14.8857 21.5145 14.9271L21.5118 14.9298L21.5124 14.9295ZM20.6361 14.5873H20.9698L20.7099 15.8195H20.3758L20.6361 14.5873ZM20.7341 14.1181H21.0681L21.0044 14.4186H20.6698L20.7338 14.1178L20.7341 14.1181ZM19.2889 15.3184C19.2889 15.4062 19.3109 15.4749 19.3577 15.5261C19.4018 15.5749 19.4584 15.5993 19.5246 15.5993C19.5858 15.5993 19.6422 15.5798 19.6961 15.5383C19.7503 15.4968 19.7919 15.4331 19.824 15.3477C19.8559 15.262 19.8703 15.1814 19.8703 15.1009C19.8703 15.0128 19.8458 14.9393 19.7968 14.8831C19.7478 14.827 19.6915 14.8001 19.6275 14.8001C19.5295 14.8001 19.4459 14.8538 19.3847 14.9637C19.3214 15.0712 19.2883 15.1937 19.2889 15.3184ZM20.062 15.8195H19.7454L19.7726 15.6875C19.7111 15.746 19.652 15.7878 19.5932 15.8122C19.5344 15.8366 19.468 15.8488 19.3945 15.8488C19.2668 15.8488 19.1636 15.8049 19.0828 15.7168C19.0041 15.6286 18.9625 15.5017 18.9625 15.3306C18.9625 15.1326 19.0191 14.9539 19.1318 14.7953C19.2447 14.6361 19.3945 14.5555 19.5809 14.5555C19.7503 14.5555 19.8755 14.6214 19.9612 14.7535L20.1012 14.1178H20.4349L20.0592 15.8195H20.062ZM17.7257 14.5873H18.0448L18.0127 14.7486C18.0913 14.6778 18.1673 14.6288 18.2359 14.5995C18.3048 14.5702 18.3785 14.5555 18.4545 14.5555C18.5577 14.5555 18.6385 14.5848 18.6973 14.6437C18.7564 14.7022 18.7858 14.7803 18.7858 14.8782C18.7858 14.9222 18.7711 15.003 18.7417 15.1226L18.592 15.8195H18.2579L18.4101 15.1201C18.4319 15.0152 18.4444 14.9539 18.4444 14.9319C18.4444 14.888 18.4322 14.8538 18.4052 14.8294C18.3761 14.8039 18.3383 14.7907 18.2996 14.7925C18.2506 14.7925 18.194 14.8123 18.1352 14.8538C18.0741 14.8951 18.0251 14.9516 17.9928 15.0176C17.9659 15.0664 17.9389 15.1641 17.9046 15.3132L17.799 15.8195H17.4652L17.7257 14.5873ZM16.7882 15.8195L17.1465 14.1178H17.4976L17.1391 15.8195H16.7879H16.7882Z" fill="#FF5F00"/>
</g>
<defs>
<clipPath id="clip0_7537_3257">
<rect width="49" height="16" fill="white"/>
</clipPath>
</defs>
</svg>
