<svg width="100" height="16" viewBox="0 0 100 16" fill="none" xmlns="http://www.w3.org/2000/svg">
<g clip-path="url(#clip0_3822_1169)">
<path d="M0 -4.4733e-07H100.002V16H0V-4.4733e-07Z" fill="#004C8F"/>
<path d="M16.6949 -4.4733e-07H100.002V16H16.6949V-4.4733e-07Z" fill="#004C8F"/>
<path d="M21.9229 11.7168V4.12081H24.5367V6.70668H26.982V4.12081H29.5958V11.7168H26.982V8.8077H24.5367V11.7168H21.9229Z" fill="white"/>
<path d="M33.7273 6.06023H34.4019C34.9078 6.06023 35.245 6.14102 35.498 6.22183C35.6666 6.30264 35.8353 6.38344 35.9196 6.54506C36.0039 6.70667 36.0882 6.8683 36.1726 7.11072C36.2569 7.35315 36.2569 7.59557 36.2569 7.9188C36.2569 8.32285 36.1726 8.72688 36.0882 9.05011C35.9196 9.37335 35.751 9.53498 35.498 9.69659C35.245 9.85821 34.9078 9.8582 34.4019 9.8582H33.7273V6.06023ZM34.6548 11.7168C35.245 11.7168 35.751 11.636 36.1726 11.5552C36.5942 11.4744 36.9314 11.3127 37.1844 11.1511C37.4373 10.9895 37.6903 10.7471 37.9432 10.5047C38.1962 10.1814 38.3648 9.85819 38.5335 9.37334C38.7021 8.9693 38.7864 8.40365 38.7864 7.83799C38.7864 7.02991 38.6178 6.30263 38.2805 5.73698C37.9433 5.17132 37.5217 4.76728 36.9314 4.52485C36.3412 4.28243 35.6667 4.12081 34.8235 4.12081H31.1978V11.7168H34.6548Z" fill="white"/>
<path d="M39.9668 11.7168V4.12081H46.122V5.97941H42.4964V7.19154H45.3632V8.9693H42.4964V11.636L39.9668 11.7168Z" fill="white"/>
<path d="M54.8068 7.11123H52.3616C52.2772 6.70719 52.1929 6.46476 51.94 6.22234C51.687 5.97991 51.4341 5.89911 51.0125 5.89911C50.5909 5.89911 50.1693 6.06073 49.9163 6.38396C49.6634 6.7072 49.4947 7.27285 49.4947 8.00013C49.4947 8.56578 49.5791 8.88901 49.6634 9.21225C49.7477 9.45467 50.0006 9.69709 50.1693 9.8587C50.4222 10.0203 50.6752 10.0203 51.0125 10.0203C51.4341 10.0203 51.687 9.93953 51.94 9.6971C52.1929 9.45468 52.2772 9.21224 52.3616 8.72739H54.8911C54.8068 9.21224 54.7225 9.61628 54.5539 9.93952C54.3852 10.2627 54.2166 10.586 53.8793 10.9092C53.542 11.2325 53.1204 11.4749 52.6988 11.6365C52.2772 11.7981 51.687 11.8789 51.0968 11.8789C50.5066 11.8789 49.9163 11.7981 49.4104 11.6365C48.9045 11.4749 48.4829 11.2325 48.1456 10.9092C47.8084 10.586 47.5554 10.2627 47.3025 9.8587C47.0495 9.29305 46.8809 8.64659 46.8809 8.00013C46.8809 7.43447 46.9652 6.86881 47.2181 6.38396C47.3868 5.89911 47.724 5.41426 48.0613 5.09103C48.3986 4.76779 48.8202 4.52537 49.2418 4.28295C49.7477 4.04052 50.3379 3.95972 51.0125 3.95972C51.6027 3.95972 52.1086 4.04052 52.6145 4.20213C53.1204 4.36375 53.542 4.60617 53.8793 4.9294C54.2166 5.25263 54.4695 5.57588 54.6382 5.97992C54.6382 6.30315 54.7225 6.62638 54.8068 7.11123Z" fill="white"/>
<path d="M63.07 5.8986C63.4073 5.8986 63.6602 5.89861 63.8289 5.97941C63.9975 6.06022 64.0818 6.14102 64.1661 6.22183C64.2505 6.30264 64.3348 6.46425 64.3348 6.62587C64.3348 6.78749 64.2505 6.94911 64.0818 7.11072C63.9132 7.27234 63.6602 7.27235 63.2386 7.27235H62.2268V5.97941H63.07V5.8986ZM63.7445 11.7168C64.3348 11.7168 64.7564 11.7168 65.0093 11.636C65.2623 11.5552 65.5152 11.4744 65.7682 11.3935C66.0211 11.2319 66.1898 11.1511 66.3584 10.9895C66.5271 10.8279 66.6957 10.5855 66.78 10.343C66.8643 10.1006 66.9487 9.77739 66.9487 9.45415C66.9487 8.96931 66.8643 8.64608 66.6114 8.32285C66.3584 7.99961 66.0212 7.83801 65.6839 7.67639C66.3584 7.27235 66.6957 6.70669 66.6957 6.06023C66.6957 5.41376 66.3584 4.84809 65.7682 4.52485C65.3466 4.28243 64.5877 4.12081 63.5759 4.12081H59.6973V11.7168H63.7445ZM63.323 8.56526C63.8289 8.56526 64.1661 8.64608 64.3348 8.72689C64.5034 8.8885 64.5877 9.05012 64.5877 9.21174C64.5877 9.45416 64.5034 9.61577 64.3348 9.77738C64.1661 9.939 63.8289 9.93901 63.323 9.93901H62.2268V8.48447L63.323 8.56526Z" fill="white"/>
<path d="M72.6821 9.21174H70.9958L71.839 6.46427L72.6821 9.21174ZM70.3212 11.7168L70.6585 10.7471H73.2724L73.6097 11.7168H76.2235L73.3567 4.12081H70.7428L67.876 11.7168H70.3212Z" fill="white"/>
<path d="M77.1514 11.7168V4.12081H79.5966L82.2948 8.16122V4.12081H84.74V11.7168H82.2948L79.5966 7.75718V11.7168H77.1514Z" fill="white"/>
<path d="M86.5107 11.7168V4.12081H89.0403V6.70668L91.4012 4.20163H94.4367L91.5699 7.02991L94.774 11.7168H91.6542L89.7992 8.72689L89.1246 9.37334V11.7168H86.5107Z" fill="white"/>
<path d="M0 -4.4733e-07H16.6951V16H0V-4.4733e-07Z" fill="#ED232A"/>
<path d="M2.95105 2.74763H13.7438V13.1719H2.95105V2.74763Z" fill="white"/>
<path d="M7.50421 -4.4733e-07H9.19058V16H7.50421V-4.4733e-07Z" fill="white"/>
<path d="M0 7.19048H16.6951V8.80664H0V7.19048Z" fill="white"/>
<path d="M5.81781 5.57412H10.7926V10.3418H5.81781V5.57412Z" fill="#004C8F"/>
</g>
<defs>
<clipPath id="clip0_3822_1169">
<rect width="100" height="16" fill="white"/>
</clipPath>
</defs>
</svg>
