<svg width="52" height="16" viewBox="0 0 52 16" fill="none" xmlns="http://www.w3.org/2000/svg">
<g clip-path="url(#clip0_6953_1454)">
<path d="M10.3574 2.95019V13.1943L15.4511 15.7519V0.385742L10.3574 2.95019Z" fill="#00F200"/>
<path d="M5.26359 2.95019L0.169922 0.385742V15.7519L5.26359 13.1943V2.95019Z" fill="#00F200"/>
<path d="M26.2357 3.37617H22.7531V0.385742H20.5449V8.50336H22.7531V5.25203H26.2357V8.50336H28.4388V0.385742H26.2357V3.37617Z" fill="#004135"/>
<path d="M33.3914 0.171875C30.962 0.171875 29.333 1.85784 29.333 4.38722C29.333 6.91659 30.9441 8.68981 33.4612 8.68981C35.473 8.68981 36.8527 7.76257 37.3691 6.00646H34.9864C34.7712 6.648 34.2668 6.97048 33.5088 6.97048C32.3698 6.97048 31.6859 6.29216 31.6289 5.11258H37.3699C37.3699 4.8286 37.3861 4.72766 37.3861 4.59165C37.3861 1.85955 35.8456 0.17273 33.3923 0.17273L33.3914 0.171875ZM31.6153 3.49334C31.8007 2.39759 32.4038 1.82448 33.3795 1.82448C34.3552 1.82448 35.04 2.49938 35.0715 3.49334H31.6153Z" fill="#004135"/>
<path d="M41.1399 0.275314C40.359 0.430994 38.355 1.03746 38.355 4.11086V8.50413H40.587V4.86874C40.587 3.53776 40.7708 2.91332 41.3237 2.50958C41.6606 2.23842 42.1489 2.08788 42.7162 2.08788C42.951 2.08788 43.0522 2.10498 43.3211 2.1546V0.312096C43.3211 0.312096 42.4296 0.0221198 41.1391 0.276169L41.1399 0.275314Z" fill="#004135"/>
<path d="M47.7364 0.170898C45.2338 0.170898 43.6235 1.84061 43.6235 4.43671C43.6235 7.0328 45.2338 8.68883 47.7364 8.68883C50.239 8.68883 51.8297 7.01655 51.8297 4.43671C51.8297 1.85686 50.2169 0.170898 47.7364 0.170898ZM47.7364 7.0003C46.56 7.0003 45.8743 6.0397 45.8743 4.43671C45.8743 2.83371 46.5464 1.87312 47.7364 1.87312C48.9265 1.87312 49.5832 2.80207 49.5832 4.42131C49.5832 6.04056 48.9103 7.0003 47.7364 7.0003Z" fill="#004135"/>
<path d="M20.5449 10.8438H23.7177V11.5656H21.4372V12.989H23.4244V13.7041H21.4372V15.752H20.5449V10.8438Z" fill="#004135"/>
<path d="M25.6409 15.7529H24.7485V10.8447H25.6409V15.7529Z" fill="#004135"/>
<path d="M26.934 10.8438H27.6102L30.0227 14.1326V10.8438H30.915V15.752H30.2455L27.8254 12.4424V15.752H26.9331V10.8438H26.934Z" fill="#004135"/>
<path d="M34.5047 10.7666C35.2439 10.7666 35.7322 10.9976 36.1856 11.3414L35.83 12.0146C35.488 11.7623 35.0355 11.5655 34.5123 11.5655C33.4039 11.5655 32.755 12.3439 32.755 13.2977C32.755 14.2514 33.4031 15.0298 34.5123 15.0298C35.0355 15.0298 35.4889 14.8408 35.83 14.5808L36.1856 15.2608C35.7322 15.6047 35.2439 15.8288 34.5047 15.8288C32.8519 15.8288 31.8413 14.6646 31.8413 13.2977C31.8413 11.9308 32.8527 10.7666 34.5047 10.7666Z" fill="#004135"/>
<path d="M39.2546 10.7666C40.6488 10.7666 41.8065 11.9026 41.8065 13.2977C41.8065 14.6928 40.6488 15.8288 39.2546 15.8288C37.8604 15.8288 36.7026 14.6928 36.7026 13.2977C36.7026 11.9026 37.8604 10.7666 39.2546 10.7666ZM39.2546 15.0162C40.1537 15.0162 40.9006 14.2874 40.9006 13.2985C40.9006 12.3097 40.1546 11.5809 39.2546 11.5809C38.3546 11.5809 37.6086 12.3097 37.6086 13.2985C37.6086 14.2874 38.3546 15.0162 39.2546 15.0162Z" fill="#004135"/>
<path d="M47.478 10.8438H49.528C50.5045 10.8438 51.0549 11.5733 51.0549 12.421C51.0549 13.2687 50.4969 13.9565 49.528 13.9565H48.3703V15.752H47.478V10.8438ZM48.3703 11.5656V13.2482H49.3886C49.8556 13.2482 50.1413 12.9043 50.1413 12.4142C50.1413 11.924 49.8556 11.5656 49.3886 11.5656H48.3703Z" fill="#004135"/>
<path d="M46.5311 15.7529L45.296 13.8873C45.951 13.6974 46.3441 13.1201 46.3441 12.4221C46.3441 11.5804 45.7928 10.8447 44.8239 10.8447H42.7178V15.7529H43.61V13.9506H44.3603L45.4773 15.7529H46.5304H46.5311ZM43.611 11.5881H44.6844C45.1378 11.5881 45.4372 11.9388 45.4372 12.4152C45.4372 12.8917 45.1446 13.2355 44.6844 13.2355H43.611V11.5881Z" fill="#004135"/>
</g>
<defs>
<clipPath id="clip0_6953_1454">
<rect width="52" height="16" fill="white"/>
</clipPath>
</defs>
</svg>
