<svg width="51" height="16" viewBox="0 0 51 16" fill="none" xmlns="http://www.w3.org/2000/svg">
<rect width="51" height="16" fill="#9D1D27"/>
<path fill-rule="evenodd" clip-rule="evenodd" d="M2.82978 3.32883H12.6711V13.1721H2.82882L2.82978 3.32883ZM13.5 2.5H2V14H13.5V2.5Z" fill="#FEFEFE"/>
<path d="M11.7308 6.2044H3.76926V4.26758H11.7308V6.2044Z" fill="#FEFEFE"/>
<path d="M5.70608 12.2291H3.76926V10.2923H5.70608V12.2291Z" fill="#FEFEFE"/>
<path d="M8.71795 9.21627H3.76926V7.28043H8.71795V9.21627Z" fill="#FEFEFE"/>
<path fill-rule="evenodd" clip-rule="evenodd" d="M16 7.12565H16.955V2.59051H16V7.12565ZM18.6687 3.3569V6.25899H19.4765C20.3629 6.25899 20.5667 5.91995 20.5667 4.79271C20.5667 3.59129 20.437 3.3569 19.3773 3.3569H18.6687ZM19.5998 2.59818C20.9908 2.59818 21.4901 3.20207 21.4901 4.78614C21.4901 6.30798 20.9603 7.01772 19.5932 7.01772H17.7573V2.59818H19.5998ZM22.1977 2.59818H25.3014V3.3569H23.109V4.39144H25.0245V5.15027H23.109V7.01772H22.1977V2.59818ZM29.5509 5.56229C29.4898 6.42577 29.009 7.11579 27.6485 7.11579C26.3174 7.11579 25.6469 6.45624 25.6469 4.82975C25.6469 3.23921 26.2815 2.5 27.6539 2.5C28.7387 2.5 29.4037 2.96231 29.5509 3.97285H28.6395C28.5348 3.57825 28.4062 3.27625 27.6539 3.27625C26.9028 3.27625 26.5703 3.72651 26.5703 4.90931C26.5703 5.82725 26.8167 6.33964 27.666 6.33964C28.2765 6.33964 28.5664 6.14886 28.6395 5.56229H29.5509ZM31.9776 2.59818H35.0813V3.3569H32.889V4.39144H34.8044V5.15027H32.889V7.01772H31.9776V2.59818Z" fill="#FEFEFE"/>
<path fill-rule="evenodd" clip-rule="evenodd" d="M35.6726 7.01772H36.5839V2.59818H35.6726V7.01772ZM38.3522 3.3569V4.52118H39.171C39.9035 4.52118 40.15 4.4471 40.15 3.89219C40.15 3.44851 39.9962 3.3569 39.2265 3.3569H38.3522ZM37.4408 2.59818H39.3563C40.2731 2.59818 41.0744 2.62327 41.0744 3.92376C41.0744 4.78614 40.7168 5.10666 40.2121 5.22435L41.3633 7.01772H40.2546L39.171 5.27891H38.3522V7.01772H37.4408V2.59818ZM42.5156 5.631C42.5516 6.0932 42.6203 6.33964 43.4945 6.33964C43.9568 6.33964 44.2948 6.27203 44.2948 5.82177C44.2948 5.55034 44.1716 5.40318 43.7835 5.29744L42.7118 5.00848C42.1765 4.86679 41.7024 4.60731 41.7024 3.80059C41.7024 3.16503 41.9912 2.5 43.3583 2.5C44.6578 2.5 45.0645 3.10399 45.083 3.89219H44.1716C44.128 3.52368 44.1105 3.27625 43.3213 3.27625C42.8601 3.27625 42.6257 3.36238 42.6257 3.71337C42.6257 4.03498 42.8165 4.12659 43.0759 4.19529L44.0604 4.46015C44.6894 4.62583 45.2181 4.87227 45.2181 5.75307C45.2181 6.9992 44.153 7.11579 43.4945 7.11579C42.0534 7.11579 41.6588 6.54894 41.6042 5.631H42.5156ZM46.764 3.37542H45.434V2.59818H49V3.37542H47.6754V7.01662H46.764V3.37542Z" fill="#FEFEFE"/>
<path fill-rule="evenodd" clip-rule="evenodd" d="M16.9503 11.7269V12.9421H17.805C18.6712 12.9421 18.8634 12.8773 18.8634 12.351C18.8634 11.7974 18.6849 11.7269 17.9903 11.7269H16.9503ZM16.9503 9.91621V10.937H18.0165C18.5882 10.937 18.7292 10.8665 18.7292 10.3913C18.7292 10.006 18.6394 9.91507 17.8369 9.91507H16.9503V9.91621ZM18.2472 9.125C19.1532 9.125 19.6476 9.44559 19.6476 10.3208C19.6476 11.0335 19.3203 11.1814 19.1214 11.2643C19.6863 11.4825 19.8272 11.9202 19.8272 12.4022C19.8272 13.1603 19.4806 13.7321 18.2086 13.7321H16V9.125H18.2472ZM22.4542 12.1714L21.8301 12.2737C21.4902 12.3248 21.247 12.3953 21.247 12.7557C21.247 13.0125 21.3744 13.1547 21.7722 13.1547C22.3189 13.1547 22.4542 12.858 22.4542 12.4408V12.1714ZM20.457 11.3746C20.5013 10.4993 21.0014 10.2629 21.9142 10.2629C22.8509 10.2629 23.3454 10.513 23.3454 11.2518V13.7321H22.4917V13.4752C22.3189 13.6548 21.9904 13.8162 21.4516 13.8162C20.6423 13.8162 20.3536 13.4559 20.3536 12.8784C20.3536 12.1259 20.8412 11.8429 21.3368 11.7656L22.4542 11.5917V11.387C22.4542 11.0722 22.2927 10.9813 21.8756 10.9813C21.4323 10.9813 21.3425 11.0847 21.2982 11.3746H20.457ZM26.3121 11.7849C26.3121 11.2655 26.3064 10.9949 25.7347 10.9949C25.0982 10.9949 25.0277 11.3291 25.0277 12.1259V13.7321H24.1353V10.3458H24.9834V10.7824C25.2266 10.4549 25.4914 10.2629 26.1132 10.2629C26.9805 10.2629 27.2056 10.6345 27.2056 11.6633V13.7321H26.3121V11.7849ZM28.0661 9.125H28.9584V11.5985L30.0564 10.3458H31.1545L29.9735 11.6314L31.2 13.7321H30.1655L29.3437 12.2612L28.9584 12.659V13.7321H28.0661V9.125Z" fill="#FEFEFE"/>
</svg>
