<svg width="48" height="16" viewBox="0 0 48 16" fill="none" xmlns="http://www.w3.org/2000/svg">
<path d="M13.6011 14.8907C13.5485 14.8366 13.4958 14.7826 13.4958 14.6745V10.9454C13.4958 10.8373 13.4958 10.7832 13.5485 10.7292C13.6011 10.6751 13.6537 10.6211 13.7591 10.6211H15.9708C16.0234 10.6211 16.0761 10.6211 16.1287 10.6751C16.1814 10.7292 16.1814 10.7832 16.1814 10.8373C16.1814 10.8913 16.1814 10.9454 16.1287 10.9994C16.0761 11.0534 16.0234 11.0535 15.9708 11.0535H14.0751V12.4046H15.7075C15.7601 12.4046 15.8128 12.4046 15.8654 12.4586C15.9181 12.5127 15.9181 12.5667 15.9181 12.6208C15.9181 12.6748 15.9181 12.7289 15.8654 12.7829C15.8128 12.837 15.7601 12.837 15.7075 12.837H14.0751V14.5664C14.0751 14.6745 14.0224 14.7285 13.9697 14.7826C13.917 14.8366 13.8644 14.8907 13.7591 14.8907C13.7065 14.9447 13.6537 14.9447 13.6011 14.8907Z" fill="#1D354A"/>
<path d="M16.8131 11.1075C16.7605 11.0534 16.7079 10.9454 16.7079 10.8373C16.7079 10.7292 16.7605 10.6752 16.8131 10.5671C16.8658 10.513 16.9712 10.459 17.0764 10.459C17.1817 10.459 17.2344 10.513 17.3397 10.5671C17.3924 10.6211 17.445 10.7292 17.445 10.8373C17.445 10.9454 17.3924 10.9995 17.3397 11.1075C17.2344 11.1615 17.1817 11.2156 17.0764 11.2156C16.9712 11.2156 16.8658 11.1615 16.8131 11.1075ZM16.7605 14.6745V12.0263C16.7605 11.9722 16.7605 11.8641 16.8658 11.8101C16.9184 11.756 16.9712 11.702 17.0764 11.702C17.1291 11.702 17.2344 11.702 17.2871 11.8101C17.3397 11.8641 17.3924 11.9182 17.3924 12.0263V14.6745C17.3924 14.7286 17.3924 14.8367 17.2871 14.8907C17.2344 14.9448 17.1817 14.9988 17.0764 14.9988C17.0238 14.9988 16.9184 14.9988 16.8658 14.8907C16.8131 14.8367 16.7605 14.7286 16.7605 14.6745Z" fill="#1D354A"/>
<path d="M18.3404 14.8918C18.2878 14.8378 18.2351 14.7838 18.2351 14.6757V12.0274C18.2351 11.9734 18.2351 11.8653 18.3404 11.8112C18.3931 11.7572 18.4457 11.7031 18.5511 11.7031C18.6037 11.7031 18.709 11.7031 18.7617 11.7572C18.8144 11.8112 18.867 11.8653 18.867 11.9734L19.0249 11.9193C19.3409 11.7572 19.6042 11.7031 19.8675 11.7031C20.0781 11.7031 20.2361 11.7031 20.3941 11.8112C20.5521 11.8653 20.71 11.9734 20.8154 12.0274C20.9207 12.1355 20.9733 12.2436 21.026 12.4057C21.0787 12.5679 21.0787 12.73 21.0787 12.9461V14.6757C21.0787 14.7297 21.0787 14.8378 20.9733 14.8918C20.9207 14.9459 20.868 14.9999 20.7627 14.9999C20.71 14.9999 20.6047 14.9999 20.5521 14.8918C20.4994 14.8378 20.4468 14.7838 20.4468 14.6757V12.9461C20.4468 12.784 20.4468 12.6759 20.3941 12.6219C20.3941 12.5679 20.3414 12.4598 20.2888 12.4057C20.1835 12.2976 19.9729 12.2436 19.7096 12.2436C19.5515 12.2436 19.4463 12.2436 19.2882 12.2976C19.1303 12.3517 19.0249 12.3517 18.9197 12.4057C18.9197 12.4057 18.867 12.4057 18.867 12.4598V12.5138V14.6757C18.867 14.7297 18.867 14.8378 18.7617 14.8918C18.709 14.9459 18.6564 14.9999 18.5511 14.9999C18.4984 14.9459 18.4457 14.9459 18.3404 14.8918Z" fill="#1D354A"/>
<path d="M44.0377 5.10753C44.0377 3.64825 43.3532 3.10785 41.9314 3.10785C40.8782 3.10785 39.825 3.54015 39.825 3.91848C39.825 4.08063 39.9303 4.40491 40.141 4.67515C40.6676 4.35086 41.0888 4.18872 41.6681 4.18872C42.5633 4.18872 42.6159 4.6211 42.6159 5.16157C41.0888 5.16157 39.5091 5.48586 39.5091 7.05316C39.5091 8.08006 40.0883 8.72863 41.1415 8.72863C41.8787 8.72863 42.2473 8.45839 42.7212 8.1341C42.9319 8.78267 43.7744 8.67458 44.2483 8.45839C44.0903 8.18815 44.0377 7.86387 44.0377 7.2153V5.10753ZM42.6159 7.16125C42.3 7.43149 41.984 7.59363 41.6154 7.59363C40.7202 7.59363 40.6676 6.56673 41.1942 6.1884C41.5101 5.97228 42.142 5.86419 42.6159 5.86419V7.16125ZM29.9779 5.10753C29.9779 3.64825 29.2933 3.10785 27.8716 3.10785C26.8184 3.10785 25.7652 3.54015 25.7652 3.91848C25.7652 4.08063 25.8705 4.40491 26.0811 4.67515C26.6077 4.35086 27.0291 4.18872 27.6083 4.18872C28.5035 4.18872 28.5561 4.6211 28.5561 5.16157C27.029 5.16157 25.4493 5.48586 25.4493 7.05316C25.4493 8.08006 26.0285 8.72863 27.0817 8.72863C27.8189 8.72863 28.1875 8.45839 28.6615 8.1341C28.872 8.78267 29.7146 8.67458 30.1885 8.45839C30.0306 8.18815 29.9779 7.86387 29.9779 7.2153V5.10753ZM28.6087 7.16125C28.2928 7.43149 27.9769 7.59363 27.6083 7.59363C26.7131 7.59363 26.6604 6.56673 27.187 6.1884C27.5029 5.97228 28.1349 5.86419 28.6087 5.86419V7.16125ZM15.4442 1H13.4958V8.51244C13.5485 8.51244 13.9697 8.56648 14.0751 8.56648C14.6543 8.56648 14.9702 8.29625 14.9702 7.75577V5.81014H15.4968C17.1819 5.81014 18.393 5.05348 18.393 3.21587C18.393 1.48643 16.9712 1 15.4442 1ZM14.9702 4.72919V2.08095C16.0234 1.97285 16.9186 2.18904 16.9186 3.26991C16.9186 4.72919 15.9181 4.72919 14.9702 4.72919ZM20.71 7.70172C20.71 8.2422 20.3941 8.51244 19.8149 8.51244C19.7095 8.51244 19.3409 8.51244 19.2356 8.45839V3.97253C19.2356 3.43206 19.5516 3.16189 20.1308 3.16189C20.2361 3.16189 20.6047 3.16189 20.71 3.21587V7.70172ZM37.2448 5.648C37.2448 4.99943 37.2448 4.78324 37.1921 4.6211C36.9815 3.97253 35.665 4.18872 35.665 4.83729V7.70172C35.665 8.2422 35.3491 8.51244 34.7698 8.51244C34.6645 8.51244 34.2959 8.51244 34.1906 8.45839V5.648C34.1906 4.99943 34.1906 4.78324 34.1379 4.6211C33.9273 3.97253 32.6108 4.18872 32.6108 4.83729V7.70172C32.6108 8.2422 32.2949 8.51244 31.7157 8.51244C31.6103 8.51244 31.2417 8.51244 31.1364 8.45839V3.21587C31.7157 3.10785 32.4002 3.16189 32.5055 3.75634C33.0848 2.89166 35.0858 2.72952 35.4544 3.97253C35.823 3.26991 36.6128 2.99975 37.3501 3.0538C38.6139 3.16189 38.7192 4.24277 38.7192 5.48586V7.64768C38.7192 8.18815 38.4033 8.45839 37.824 8.45839C37.7187 8.45839 37.3501 8.45839 37.2448 8.40434V5.648ZM21.8158 8.51244C21.8685 8.51244 22.2898 8.56648 22.3951 8.56648C22.9743 8.56648 23.2903 8.29625 23.2903 7.75577V5.10753C23.2903 4.513 24.1328 4.13467 24.87 4.72919C25.028 4.40491 25.2386 3.91848 25.2386 3.64825C25.2386 3.0538 23.9749 2.78356 23.2376 3.75634C23.0796 3.16189 22.3951 3.16189 21.8158 3.21587V8.51244ZM46.6179 1.05405C46.5653 1.05405 46.2493 1 46.1441 1C45.5121 1 45.1961 1.27024 45.1961 1.81071V8.51244C45.2488 8.51244 45.6701 8.56648 45.7754 8.56648C46.3547 8.56648 46.6707 8.29625 46.6707 7.75577V1.05405H46.6179ZM19.9728 1C19.6042 1 19.2883 1.27024 19.2356 1.64857C19.1829 2.13499 19.6042 2.56737 20.0781 2.51333C20.4994 2.45928 20.7627 1.97285 20.6574 1.59452C20.6047 1.21619 20.2887 1 19.9728 1Z" fill="#1D354A"/>
<path d="M22.3951 14.7812C22.1844 14.619 22.0264 14.4569 21.9211 14.1867C21.8159 13.9165 21.7632 13.6462 21.7632 13.322C21.7632 12.9977 21.8159 12.6734 21.9738 12.4572C22.1318 12.187 22.2897 12.0248 22.5004 11.8627C22.711 11.7546 22.9217 11.6465 23.185 11.6465C23.3429 11.6465 23.4483 11.6465 23.6062 11.7005C23.7115 11.7546 23.8695 11.8086 24.0275 11.8627L24.1854 11.9708C24.1854 11.9167 24.1854 11.8086 24.2908 11.7546C24.3435 11.7005 24.3961 11.6465 24.5014 11.6465C24.5541 11.6465 24.6594 11.6465 24.712 11.7546C24.7647 11.8086 24.8174 11.8627 24.8174 11.9708V14.619C24.8174 14.6731 24.8174 14.7812 24.712 14.8352C24.6594 14.8893 24.6068 14.9433 24.5014 14.9433C24.4487 14.9433 24.3435 14.9433 24.2908 14.8352C24.2381 14.7812 24.1854 14.7271 24.1854 14.619L24.0275 14.7271C23.8695 14.8352 23.7115 14.8893 23.6062 14.8893C23.3955 14.9973 23.2376 14.9973 23.0796 14.9973C22.8163 14.9973 22.6057 14.9433 22.3951 14.7812ZM23.6588 14.4029C23.8169 14.3489 23.9748 14.2948 24.0802 14.2408C24.1328 14.2408 24.1328 14.1867 24.1328 14.1867V14.1327V12.6193C24.1328 12.5653 24.1328 12.5653 24.1328 12.5112L24.0802 12.4572C23.9748 12.4031 23.8169 12.3491 23.6588 12.2951C23.5009 12.241 23.3956 12.241 23.2376 12.241C22.9217 12.241 22.711 12.3491 22.553 12.5112C22.3951 12.7274 22.2897 12.9977 22.2897 13.376C22.2897 14.1327 22.6057 14.5109 23.185 14.5109C23.3429 14.4569 23.4483 14.4029 23.6588 14.4029Z" fill="#1D354A"/>
<path d="M25.6597 14.8918C25.6071 14.8378 25.5544 14.7838 25.5544 14.6757V12.0274C25.5544 11.9734 25.5544 11.8653 25.6597 11.8112C25.7124 11.7572 25.765 11.7031 25.8703 11.7031C25.923 11.7031 26.0283 11.7031 26.0809 11.7572C26.1336 11.8112 26.1863 11.8653 26.1863 11.9734L26.3442 11.9193C26.6602 11.7572 26.9235 11.7031 27.1868 11.7031C27.3974 11.7031 27.5554 11.7031 27.7134 11.8112C27.8714 11.8653 28.0293 11.9734 28.1347 12.0274C28.24 12.1355 28.2926 12.2436 28.3453 12.4057C28.398 12.5679 28.398 12.73 28.398 12.9461V14.6757C28.398 14.7297 28.398 14.8378 28.2926 14.8918C28.24 14.9459 28.1873 14.9999 28.082 14.9999C27.9767 14.9999 27.924 14.9999 27.8714 14.8918C27.766 14.8378 27.766 14.7297 27.766 14.6757V12.9461C27.766 12.784 27.766 12.6759 27.7134 12.6219C27.7134 12.5679 27.6607 12.4598 27.6081 12.4057C27.5027 12.2976 27.2921 12.2436 27.0288 12.2436C26.8708 12.2436 26.7655 12.2436 26.6075 12.2976C26.4496 12.3517 26.3442 12.3517 26.239 12.4057C26.239 12.4057 26.1863 12.4057 26.1863 12.4598V12.5138V14.6757C26.1863 14.7297 26.1863 14.8378 26.0809 14.8918C26.0283 14.9459 25.9757 14.9999 25.8703 14.9999C25.8176 14.9459 25.765 14.9459 25.6597 14.8918Z" fill="#1D354A"/>
<path d="M29.4512 14.5676C29.2933 14.4054 29.1879 14.2433 29.1353 14.0271C29.0826 13.8109 29.03 13.5947 29.03 13.3245C29.03 13.0542 29.0826 12.838 29.1879 12.6219C29.2933 12.4057 29.3986 12.2436 29.5566 12.0815C29.7145 11.9734 29.8198 11.8653 30.0305 11.8112C30.1885 11.7572 30.3991 11.7031 30.557 11.7031C30.7677 11.7031 30.9784 11.7572 31.1889 11.8653C31.3996 11.9734 31.5576 12.1355 31.7155 12.2976C31.7682 12.4057 31.8209 12.4598 31.8209 12.5138C31.8209 12.5679 31.8209 12.6219 31.7682 12.676C31.7155 12.73 31.6629 12.73 31.6102 12.73C31.5576 12.73 31.5049 12.73 31.5049 12.676C31.4522 12.676 31.4522 12.6219 31.3996 12.5679L31.2943 12.4598C31.189 12.3517 31.0836 12.2436 30.9257 12.1896C30.8203 12.1355 30.7151 12.1355 30.557 12.1355C30.4518 12.1355 30.3464 12.1355 30.2411 12.1896C30.1358 12.2436 30.0304 12.2976 29.9778 12.3517C29.8725 12.4598 29.8198 12.5679 29.7672 12.73C29.7145 12.8921 29.6619 13.0542 29.6619 13.2164C29.6619 13.3785 29.6619 13.5407 29.7145 13.7028C29.7672 13.8649 29.8199 13.973 29.9252 14.0811C30.0831 14.2973 30.3464 14.3514 30.6624 14.3514C30.873 14.3514 31.1363 14.2973 31.4522 14.1352C31.5576 14.0811 31.6102 14.0811 31.6629 14.0811C31.7155 14.0811 31.7682 14.0811 31.8209 14.1352C31.8735 14.1892 31.8735 14.2433 31.8735 14.2973C31.8735 14.3514 31.8735 14.4054 31.8209 14.4595C31.8209 14.5135 31.7682 14.5676 31.6629 14.5676C31.5049 14.6757 31.3469 14.7297 31.1889 14.7838C30.9784 14.8378 30.8203 14.8918 30.6097 14.8918C30.1358 14.9999 29.7672 14.8378 29.4512 14.5676Z" fill="#1D354A"/>
<path d="M33.19 14.8893C32.9795 14.8352 32.8214 14.7271 32.7162 14.565C32.5581 14.4029 32.4529 14.2408 32.4002 14.0246C32.3475 13.8084 32.2948 13.5922 32.2948 13.322C32.2948 12.9977 32.3475 12.7274 32.5055 12.4572C32.6635 12.187 32.8214 12.0248 33.0321 11.8627C33.2427 11.7005 33.506 11.6465 33.822 11.6465C34.0853 11.6465 34.3486 11.7005 34.5591 11.8627C34.7698 12.0248 34.9804 12.187 35.0857 12.4031C35.1911 12.6193 35.2964 12.8896 35.2964 13.1598C35.2964 13.2679 35.2964 13.322 35.2437 13.376C35.1911 13.43 35.1384 13.43 35.0331 13.43H32.9268C32.9268 13.7003 33.0321 13.9705 33.2427 14.1327C33.4007 14.2948 33.664 14.4029 33.9273 14.4029C34.0853 14.4029 34.1906 14.4028 34.3486 14.3489C34.4539 14.2948 34.6119 14.2408 34.7698 14.1327C34.8224 14.1327 34.8751 14.0786 34.8751 14.0786C34.9278 14.0786 34.9278 14.0786 34.9804 14.0786C35.0331 14.0786 35.0857 14.0786 35.1384 14.1327C35.1911 14.1867 35.1911 14.2408 35.1911 14.2948C35.1911 14.3489 35.1911 14.4029 35.1384 14.4569C35.0857 14.5109 35.0331 14.565 34.9804 14.619C34.8751 14.7271 34.7172 14.7812 34.5065 14.8352C34.2959 14.8893 34.1379 14.9433 33.9273 14.9433C33.6113 14.9973 33.4007 14.9433 33.19 14.8893ZM34.6645 13.0517C34.6645 12.7815 34.5591 12.6193 34.4012 12.4572C34.2432 12.2951 34.0326 12.241 33.7693 12.241C33.506 12.241 33.2954 12.2951 33.1374 12.4572C32.9794 12.6193 32.8741 12.8355 32.8214 13.0517H34.6645Z" fill="#1D354A"/>
<path d="M6.26333 14.6972C7.41863 13.5874 9.0908 10.29 9.12118 7.75346C8.84758 7.84858 8.33072 8.13394 8.11789 9.05341C7.99631 9.59243 7.69228 10.829 6.50655 10.7338C4.86481 10.5754 5.10803 7.37297 7.66185 7.65833C8.87797 7.78516 9.06037 6.89741 9.06037 6.77058C8.78677 6.89741 8.39154 6.83399 8.02669 6.80228C5.71609 6.51692 4.6216 7.88028 4.6216 9.4656C4.6216 10.4168 5.19923 11.2095 5.8681 11.6534C6.23295 11.8753 5.9593 12.129 5.71609 11.907C5.01683 11.368 4.19594 10.7021 4.19594 9.21194C4.19594 6.73887 6.59775 5.66083 7.17542 5.21697C8.02669 4.55112 8.42192 4.0121 8.20909 3.06092C7.87468 3.69502 7.05379 4.26575 6.44573 4.58282C4.804 5.50229 3.49668 6.83399 3.49668 8.76809C3.49668 10.3217 4.13512 11.146 4.92563 11.8119C5.10803 11.9704 4.92563 12.1607 4.68241 11.9704C3.46629 10.9875 3.04064 9.84609 3.04064 8.35589C3.04064 5.5657 6.41535 3.02922 4.8952 1C4.92563 3.06092 2.3718 4.86819 2.3718 8.26077C2.3718 9.78267 2.94944 11.3046 4.59117 12.5094C5.56407 13.207 5.6857 14.0313 5.56407 14.7606C5.50326 15.1728 5.9593 14.9825 6.26333 14.6972ZM1.97653 5.81936C2.12855 3.94868 1.24689 3.378 1.24689 3.378C1.24689 3.378 1.45972 4.17063 1.3077 6.19985C1.21648 7.59492 1.67255 8.67296 1.94615 9.33877C1.97653 9.43389 2.12855 9.37048 2.09816 9.27536C1.85495 8.29248 1.85495 7.37297 1.97653 5.81936Z" fill="#E24426"/>
</svg>
