<svg width="45" height="16" viewBox="0 0 45 16" fill="none" xmlns="http://www.w3.org/2000/svg">
<path d="M26.1071 8.08942C25.3581 7.46843 24.3884 7.06759 23.5333 6.71368C22.3541 6.226 21.3353 5.80523 21.3353 5.02483C21.3353 4.68403 21.4948 4.37093 21.7848 4.14513C22.0907 3.90677 22.5177 3.77556 22.9866 3.77556C24.4611 3.77556 25.6372 4.81836 25.6476 4.82778L25.9351 5.09017L27.242 2.6392L27.0924 2.48135C27.0354 2.42074 25.6592 1 23.0043 1C21.7305 1 20.5591 1.40718 19.7045 2.14629C18.8373 2.89636 18.3586 3.93185 18.3586 5.06141C18.3586 6.16274 18.7861 7.05346 19.6637 7.78366C20.4018 8.39681 21.3212 8.793 22.2109 9.17671C23.424 9.69942 24.4732 10.1515 24.4732 10.956C24.4732 11.5686 24.0581 12.2235 22.8951 12.2235C21.2272 12.2235 19.8885 10.9534 19.8755 10.9403L19.6246 10.6967L18 12.948L18.162 13.1294C18.1803 13.1482 18.6001 13.6118 19.3888 14.0734C20.1122 14.4958 21.3019 14.9996 22.858 14.9996C24.2196 14.9996 25.38 14.582 26.2143 13.7927C26.9989 13.0494 27.4306 12.0228 27.4306 10.9016C27.4306 9.748 26.9978 8.82806 26.1071 8.08942Z" fill="#292075"/>
<path d="M40.4306 15H43.4306V1H40.4306V15Z" fill="#292075"/>
<path d="M34.2285 12.3797H31.8636V3.62249H33.9489C34.8836 3.62249 35.4197 4.15 35.4197 5.06938C35.4197 5.99844 34.9375 6.46884 33.9858 6.46884H33.2677V9.04559H34.2285C34.754 9.04559 35.192 9.21083 35.4945 9.52525C35.8124 9.85466 35.9415 10.1808 35.9415 10.6508C35.9415 11.7176 35.2853 12.3797 34.2285 12.3797ZM38.3538 8.70971C38.0465 8.22206 37.6251 7.83447 37.1236 7.57504C37.933 6.92047 38.3907 5.91552 38.3907 4.76792C38.3907 3.6074 37.9527 2.6396 37.1236 1.96728C36.3426 1.3348 35.2581 1 33.9858 1H28.9306V15H34.0423C35.3984 15 36.5715 14.6544 37.4341 13.9993C38.4136 13.2565 38.9306 12.151 38.9306 10.8009C38.9306 10.0317 38.7316 9.3083 38.3538 8.70971Z" fill="#292075"/>
<path d="M9.00101 1C5.13448 1 2 4.14175 2 8.01714C2 11.6505 4.75491 14.6386 8.28462 14.9979V9.9005C7.52595 9.61094 6.98549 8.87628 6.98549 8.01714C6.98549 6.9055 7.88938 6.0011 9.00101 6.0011C10.1121 6.0011 11.0171 6.9055 11.0171 8.01714C11.0171 8.87628 10.4756 9.61094 9.71696 9.9005V14.9979C13.2472 14.6386 16.0021 11.6505 16.0021 8.01714C16.0021 4.14175 12.8676 1 9.00101 1Z" fill="#00B5EF"/>
</svg>
